PathFileType	4	(X/Y/Z)	E:/Marcel_BSc/Marcel/30_01_2025/static_00_hjc.trc	
DataRate	CameraRate	NumFrames	NumMarkers	Units	OrigDataRate	OrigDataStartFrame	OrigNumFrames	
200.00	200.00	4	77	mm	200.00	60	158	
Frame#	Time	FHD			LBHD			RBHD			RBAR			LBAR			RASI			RSACR			LSACR			LASI			USACR			C7			CLAV			T10			RSHO			LSHO			LTHI1			LTHI3			LTHI2			LLFC			LMFC			LTIB1			LTIB2			LTIB3			LMMAL			LLMAL			LHEE			LMT1			LMT5			LMT3			RTHI1			RTHI2			RTHI3			RLFC			RMFC			RTIB1			RTIB3			RTIB2			RLMAL			RMMAL			RHEE			RMT5			RMT1			RMT3			LMEP			LLEP			LDUPA			LMUPA			LUUPA			LUL			LRAD			LRFIN			RUL			RRAD			RUFIN			RMEP			RLEP			RMUPA			RDUPA			RUUPA			*59			*60			*61			*62			*63			*64			*65			*66			*67			*68			*69			*70			LAJC			RAJC			LKJC			RKJC			LHJC			RHJC			
		X1	Y1	Z1	X2	Y2	Z2	X3	Y3	Z3	X4	Y4	Z4	X5	Y5	Z5	X6	Y6	Z6	X7	Y7	Z7	X8	Y8	Z8	X9	Y9	Z9	X10	Y10	Z10	X11	Y11	Z11	X12	Y12	Z12	X13	Y13	Z13	X14	Y14	Z14	X15	Y15	Z15	X16	Y16	Z16	X17	Y17	Z17	X18	Y18	Z18	X19	Y19	Z19	X20	Y20	Z20	X21	Y21	Z21	X22	Y22	Z22	X23	Y23	Z23	X24	Y24	Z24	X25	Y25	Z25	X26	Y26	Z26	X27	Y27	Z27	X28	Y28	Z28	X29	Y29	Z29	X30	Y30	Z30	X31	Y31	Z31	X32	Y32	Z32	X33	Y33	Z33	X34	Y34	Z34	X35	Y35	Z35	X36	Y36	Z36	X37	Y37	Z37	X38	Y38	Z38	X39	Y39	Z39	X40	Y40	Z40	X41	Y41	Z41	X42	Y42	Z42	X43	Y43	Z43	X44	Y44	Z44	X45	Y45	Z45	X46	Y46	Z46	X47	Y47	Z47	X48	Y48	Z48	X49	Y49	Z49	X50	Y50	Z50	X51	Y51	Z51	X52	Y52	Z52	X53	Y53	Z53	X54	Y54	Z54	X55	Y55	Z55	X56	Y56	Z56	X57	Y57	Z57	X58	Y58	Z58	X59	Y59	Z59	X60	Y60	Z60	X61	Y61	Z61	X62	Y62	Z62	X63	Y63	Z63	X64	Y64	Z64	X65	Y65	Z65	X66	Y66	Z66	X67	Y67	Z67	X68	Y68	Z68	X69	Y69	Z69	X70	Y70	Z70	X71	Y71	Z71	X72	Y72	Z72	X73	Y73	Z73	X74	Y74	Z74	X75	Y75	Z75	X76	Y76	Z76	X77	Y77	Z77	

60	0.295	103.18301	579.85736	1817.88928	135.61665	521.52338	1803.15369	131.62946	650.73804	1801.63684	1237.76025	1766.98145	37.49900	1247.99951	-457.96030	32.43031	100.36398	724.65405	1048.37158	308.92233	621.34131	1098.10046	304.72919	557.46985	1095.21973	94.45467	458.67584	1038.57080	300.50256	589.32251	1111.93591	278.59784	583.19342	1566.81958	116.14670	584.46960	1531.42712	280.86484	577.52637	1257.09912	239.67004	733.90546	1605.01184	223.48616	416.88770	1595.21057	227.94359	410.28207	706.99390	257.51920	428.91803	651.28015	210.52214	408.17160	643.77356	221.13197	415.37421	524.74518	174.22751	517.25873	506.31924	222.11288	399.94638	276.40344	269.38980	381.14819	274.93582	242.78223	391.95547	214.25050	268.03842	468.15576	92.41237	287.06290	380.64642	83.72758	343.93948	422.42035	39.03057	115.25124	434.43146	41.44421	145.15422	352.03467	26.12506	122.67404	388.93741	36.07603	207.28047	792.97955	674.64771	254.22586	773.72821	671.01019	225.65627	781.67694	613.10815	202.69290	778.22571	529.30927	179.04114	681.91101	508.66827	259.70731	811.38910	277.76096	291.50757	814.05206	219.53017	240.60023	809.81793	214.43317	292.78482	813.59399	75.50425	245.12569	736.32080	71.09652	339.70831	765.13806	30.55772	173.10716	862.64758	26.14447	109.41110	788.38611	42.54101	134.08463	828.94452	40.16092	160.56000	114.26064	1469.64563	233.44279	115.80095	1508.85754	259.50735	216.98343	1523.17102	226.89711	219.34200	1560.90356	235.78394	281.01355	1564.91980	170.16747	-167.61836	1563.04419	140.95602	-136.58147	1627.94861	167.11139	-236.11374	1657.08057	216.20694	1341.46338	1591.51636	195.47336	1308.00452	1658.53967	226.38974	1394.51697	1681.23389	178.24899	1044.99536	1484.43591	247.46779	1056.59473	1539.61560	246.45499	909.99353	1577.28088	254.41711	970.30981	1564.54346	281.27097	898.54962	1542.24890	117.53931	626.41803	1750.15271	125.22866	536.68408	1730.01868	145.97604	615.45593	1735.58154	1239.44727	-61.56695	57.08761	-201.83699	-470.06754	23.49587	126.61680	588.29230	1748.17163	924.69183	511.83478	574.09509							2029.09753	-1592.83032	-1465.06970							277.55066	424.40109	88.06998	268.95525	774.95740	73.30038	197.67974	466.31647	515.53221	190.86702	730.06836	518.98877	199.59193	508.07285	1066.89526	204.64315	672.99768	1073.23602 
61	0.300	103.16935	579.89636	1817.87952	135.59546	521.55255	1803.15149	131.61620	650.76453	1801.62012	1237.75879	1766.97571	37.49932	1247.94629	-457.96371	32.32434	100.42994	724.72449	1048.38977	308.95242	621.36169	1098.12708	304.78955	557.46790	1095.23938	94.50681	458.67834	1038.56689	300.56168	589.33063	1111.94312	278.61713	583.21387	1566.82141	116.16920	584.48596	1531.43396	280.90985	577.52600	1257.10620	239.67717	733.92511	1605.02222	223.47630	416.90649	1595.23425	227.96451	410.29437	706.98340	257.55038	428.91336	651.28009	210.56540	408.16776	643.77081	221.15430	415.36853	524.74573	174.23860	517.27148	506.33508	222.16266	400.23868	276.31390	269.39822	381.14615	274.92914	242.78743	391.95581	214.23387	268.02072	468.15482	92.44389	287.06335	380.64114	83.71954	344.05179	422.28445	39.11369	115.25920	434.42801	41.43770	145.15663	352.03476	26.12083	122.68156	388.93951	36.07193	207.27368	792.98920	674.70886	254.23517	773.74683	671.02026	225.79390	781.60773	613.09070	202.69339	778.24292	529.33765	179.05342	681.92218	508.66049	259.71091	811.40961	277.75244	291.35590	813.89984	219.61789	240.59076	809.81006	214.43178	292.78101	813.60034	75.49575	245.12856	736.31940	71.09103	339.86938	765.04309	30.54660	173.12042	862.64160	26.13283	109.40549	788.38934	42.54230	134.07503	828.95367	40.15779	160.58992	114.27030	1469.65112	233.45615	115.81229	1508.87183	259.51614	216.99504	1523.19226	226.82599	218.98332	1560.98975	235.78719	281.03702	1564.92578	170.19897	-167.61882	1563.05371	140.93295	-136.58707	1627.94653	167.09760	-236.09174	1657.10242	216.21082	1341.46082	1591.50586	195.45308	1308.02649	1658.52393	226.39423	1394.52710	1681.24036	178.23416	1045.03821	1484.42761	247.46666	1056.64075	1539.62939	246.48465	910.01978	1577.28320	254.42673	970.32153	1564.54150	281.28033	898.56653	1542.23291	117.59431	626.20642	1751.28723	125.18163	536.73346	1729.97522							-201.60364	-470.00732	23.55999	126.55374	588.25024	1748.20190	925.97656	518.32086	571.17487	30.77592	554.45276	1776.10791	1235.30298	-220.87332	42.21314										277.54204	424.39798	88.08171	268.95478	774.95987	73.29339	197.69645	466.32001	515.54041	190.87341	730.08255	518.99907	199.64818	508.07312	1066.90314	204.69118	673.04309	1073.25842 
62	0.305	103.14693	579.93591	1817.87524	135.58182	521.58289	1803.15393	131.59653	650.79205	1801.61084	1237.76550	1766.97253	37.49291	1248.00061	-457.97742	32.42042	100.15121	723.97479	1048.19312	308.99881	621.37872	1098.14990	304.83221	557.47986	1095.25159	94.55214	458.69049	1038.56946	300.61258	589.34540	1111.95374	278.63361	583.22974	1566.83264	116.18382	584.50079	1531.43384	280.93530	577.54596	1257.10901	239.68312	733.93481	1605.03076	223.48074	416.92313	1595.26062	227.98671	410.28830	706.97583	257.56097	428.90839	651.26654	210.59789	408.16281	643.76642	221.17175	415.36349	524.73743	174.24821	517.26575	506.33405	222.19218	400.24252	276.29904	269.41571	381.13968	274.92059	242.79956	391.97153	214.22008	268.00494	468.15338	92.45437	287.06799	380.63852	83.71353	343.91827	422.42914	39.03054	115.25787	434.42810	41.43896	145.15799	352.03961	26.12033	122.67015	388.93457	36.07166	207.34399	793.00238	674.64545	254.26881	773.72632	671.01764	225.71733	781.68671	613.09827	202.74147	778.22607	529.32416	179.06027	681.93237	508.65222	259.71338	811.41437	277.76041	291.50128	814.05505	219.54172	240.59711	809.81952	214.43030	292.79443	813.60559	75.48766	245.13051	736.32178	71.08311	339.68195	765.15839	30.54966	173.10355	862.65472	26.14802	109.41190	788.39551	42.53107	134.08104	828.95044	40.15997	160.59625	114.28278	1469.66003	233.46715	115.82566	1508.89380	259.51453	217.01622	1523.21375	226.91151	219.34737	1560.94531	235.78574	281.05042	1564.97791	170.20956	-167.60822	1563.05762	140.91965	-136.56866	1627.94446	167.10887	-236.07576	1657.11865	216.21594	1341.48425	1591.49670	195.43765	1308.04663	1658.50818	226.38472	1394.55786	1681.22498	178.24330	1045.06140	1484.40344	247.48218	1056.66443	1539.62305	246.49464	910.04901	1577.28235	254.41487	970.35767	1564.52100	281.27582	898.60242	1542.23071	117.61217	626.29230	1751.58655	125.16864	536.76025	1729.95251	153.01501	613.57373	1734.32825							126.53791	588.25012	1748.20398	925.91229	518.31879	571.13782				1235.36060	-221.39929	42.44494										277.53647	424.39595	88.08395	268.96247	774.96368	73.28539	197.70998	466.31462	515.53574	190.90087	730.07922	518.98819	199.69218	508.08517	1066.91052	204.57501	672.67676	1073.17151 
63	0.310	103.11545	579.96686	1817.87122	135.55237	521.61530	1803.15601	131.57706	650.82690	1801.59778	1237.76648	1766.97974	37.49231	1247.99719	-457.98370	32.43445	100.49166	724.63708	1048.37073	309.06601	621.37274	1098.15063	304.88840	557.49768	1095.26477	94.59914	458.68832	1038.56970	300.65576	589.34760	1111.96936	278.64569	583.23334	1566.85181	116.19688	584.51392	1531.43311	280.98578	577.54395	1257.12756	239.68587	733.95404	1605.04041	223.47285	416.97726	1595.19958	227.99924	410.29785	706.97284	257.58795	428.91220	651.25494	210.60551	408.16409	643.76007	221.19197	415.36343	524.73242	174.25932	517.26733	506.32889	222.13678	399.93420	276.40134	269.41745	381.13980	274.91507	242.81291	391.92883	214.25883	268.03961	468.15115	92.42172	287.06577	380.63351	83.71315	344.05176	422.28928	39.09748	115.25550	434.42868	41.43899	145.15417	352.03546	26.11511	122.67579	388.93622	36.07247	207.35695	793.01379	674.68024	254.28372	773.73596	670.99274	225.73105	781.69708	613.11279	202.74838	778.25104	529.32788	179.07265	681.94672	508.65439	259.73083	811.40668	277.75659	291.70709	814.03748	219.38571	240.60493	809.82263	214.42256	292.78265	813.60504	75.49854	245.12914	736.32379	71.08028	339.70172	765.16443	30.52942	173.10141	862.65668	26.14307	109.40800	788.38739	42.53598	134.07544	828.95624	40.15599	160.60683	114.30190	1469.68372	233.46739	115.83408	1508.90686	259.52551	217.02357	1523.25281	226.92058	219.38985	1560.96753	235.76880	281.05734	1564.98853	170.23247	-167.59384	1563.05688	140.91838	-136.55836	1627.94641	167.11913	-236.04680	1657.12036	216.22534	1341.49792	1591.48547	195.42802	1308.07251	1658.49463	226.35304	1394.56665	1681.21277	178.24397	1045.05920	1484.41492	247.49826	1056.65051	1539.63684	246.48514	910.06042	1577.29175	254.39912	970.37238	1564.52576	281.27112	898.62994	1542.23462	117.55241	626.23132	1751.51221	125.17656	536.78357	1729.96021	152.69771	613.69958	1734.38574	1239.41113	-61.61848	57.27657	-201.46846	-469.88809	23.60218	126.54541	588.28625	1748.26282	925.98834	518.32562	571.12207																277.55269	424.39233	88.06744	268.95589	774.96442	73.28941	197.72565	466.31538	515.53065	190.91051	730.09888	518.99113	199.74377	508.09300	1066.91724	204.77884	673.00491	1073.26068 
